<?xml version="1.0" encoding="UTF-8"?>
<svg id="Layer_1" data-name="Layer 1" xmlns="http://www.w3.org/2000/svg" viewBox="0 0 96 135.05">
  <defs>
    <style>
      .cls-1 {
        fill: #fff;
      }
    </style>
  </defs>
  <path class="cls-1" d="M96,0v135.05H0V0h96ZM14.01,12.49c-.01-.19-.11-.5-.34-.48-.25.03-1.66.84-1.96,1.04-1.04.7-2.19,1.87-2.89,2.91-.14.2-.48,1-.52,1.03-.03.02-.34-.12-.65,0-1.39.53-2.3,5.02-2.15,6.4-.66-.07-.74.4-.79.96-.23,2.52,1.34,6.01,3.05,7.85,1.12,1.2,1.8.56,3.13.21,1.32,1.98,2.82,3.86,4.61,5.44.09.08.18.15.3.15l-2.1,3.15c-.19.25-.52.35-.75.55-.76.68-1.79,3.04-1.94,4.06-.22,1.48-.08,3.47,1.89,3.34-.02.46.32,1.01.73,1.22.19.09.52.09.65.2.1.09.77,1.51.94,1.81,1.74,2.93,3.77,5.34,5.72,8.08.07.1.33.4.26.49-.91.4-1.83.78-2.7,1.25-.96.52-2.41,1.63-3.33,1.97-.28.1-.55.03-.77.13-.23.1-.66.66-.93.77-.3.12-.57.03-.87.13-1.06.35-4.01,4.33-4.34,5.46-.34,1.17-.65,5.35-.46,6.52.07.44.47.56.54.75.04.12-.09.56,0,.91.12.46.66,1.32.87,1.83.14.34.87,2.35.98,2.42.15.08.36,0,.48.07.05.03.09.23.22.33.54.4,1.34.12,1.83.27.16.05.27.27.44.36.62.34,3.4,1.48,3.97,1.41.51-.05.72-.43.82-.9.04-.18-.04-.45-.01-.51.04-.08.26-.14.35-.24.24-.28.23-.63.17-.98s-.34-.56-.33-.87c.73.13.78.93,1.21,1.49.48.62,1.26,1.11,2.01,1.28.22.05.58-.03.71.04.03.02.24.45.37.58.64.68,1.16.89,2.09,1.01l2.04,1.66c.1,13.36-.06,26.72.02,40.07,0,.35-.17.6.05.94s.98.36,1.4.41c10.96,1.32,22.03,1.89,33,3.21l24.25-8.55c.44-.35.19-.76.2-1.19.03-14.6.02-29.2,0-43.79,0-.45.28-1.04-.35-1.24l-9.45-.6c.32-2.9.57-6.14-.03-9.02-.08-.36-.18-.84-.32-1.18-.41-.96-2.96-2.29-3.97-2.63-.49-.16-1.38-.24-1.71-.39-.17-.07-.19-.22-.22-.38-.57-2.24-.77-5.16-1.18-7.52-.48-2.84-1.31-5.97-1.47-8.83-.08-1.4.41-2.44.5-3.8.11-1.75-.24-4.95-1.55-6.25-.2-.2-.72-.38-.74-.41-.04-.06-.11-1.06-.19-1.36-.8-2.94-3.62-4.74-5.9-6.44-.08-1.73-1.83-2.68-3.13-3.52-.45-.29-2.71-1.49-2.87-1.68-.08-.09-.38-1.16-.51-1.44-.47-1.02-.74-1.25-1.71-1.78-1.45-.8-4.12-1.8-5.75-1.95-.45-.04-1.2.09-1.58-.02-.25-.07-.62-.71-.83-.76-.44-.09-2.82,1.03-3.37,1.29-1.91.91-3.03,1.37-4.25,3.15-.73,1.07-1.29,2.19-1.74,3.41-.87,0-1.77.07-2.64.02-.4-.02-1.43-.11-1.78-.22-.08-.02-.13-.06-.16-.14.28-.55.11-1.16.19-1.7.05-.37.22-.47.21-1,0-.36-.32-1.58-.29-1.69.04-.17.33-.03.27-.38-.12-.65-.72-1.46-1.18-1.93,0-.13.7-.14.24-.84-.43-.67-1.6-1.43-2.35-1.71.1-.47.9-.46.4-.95-.94-.93-3.41-1.52-4.7-1.75l.3-.7c-2.52-.87-5.1-.89-7.69-.31h0Z"/>
  <path d="M14.01,12.49c2.59-.58,5.17-.56,7.69.31l-.3.7c1.29.23,3.76.81,4.7,1.75.5.49-.31.48-.4.95.74.28,1.92,1.04,2.35,1.71.45.7-.24.72-.24.84.46.46,1.06,1.28,1.18,1.93.06.35-.23.21-.27.38-.03.11.29,1.33.29,1.69,0,.53-.16.63-.21,1-.07.54.09,1.14-.19,1.7.03.08.08.11.16.14.34.11,1.37.2,1.78.22.87.05,1.77-.03,2.64-.02.44-1.22,1-2.34,1.74-3.41,1.22-1.78,2.34-2.25,4.25-3.15.55-.26,2.94-1.38,3.37-1.29.21.04.58.68.83.76.38.11,1.13-.02,1.58.02,1.64.14,4.3,1.15,5.75,1.95.97.53,1.24.76,1.72,1.78.13.28.43,1.35.51,1.44.16.2,2.41,1.39,2.87,1.68,1.3.84,3.05,1.78,3.13,3.52,2.28,1.71,5.11,3.5,5.9,6.44.08.3.15,1.3.19,1.36.02.04.54.21.74.41,1.3,1.31,1.66,4.5,1.55,6.25-.09,1.35-.57,2.4-.5,3.8.16,2.86.98,5.99,1.47,8.83.4,2.36.61,5.28,1.18,7.52.04.15.06.3.22.38.33.15,1.22.23,1.71.39,1.01.33,3.57,1.67,3.97,2.63.14.33.25.82.32,1.18.6,2.88.35,6.12.03,9.02l9.45.6c.63.21.35.79.35,1.24.02,14.6.03,29.2,0,43.79,0,.44.25.84-.2,1.19l-24.25,8.55c-10.96-1.32-22.04-1.88-33-3.21-.42-.05-1.17-.06-1.4-.41s-.05-.59-.05-.94c-.09-13.36.07-26.72-.02-40.07l-2.04-1.66c-.93-.12-1.44-.33-2.09-1.01-.12-.13-.34-.56-.37-.58-.13-.07-.49,0-.71-.04-.76-.17-1.54-.67-2.01-1.28-.43-.56-.48-1.36-1.21-1.49-.01.31.27.52.33.87s.07.7-.17.98c-.09.11-.31.17-.35.24-.03.05.05.33.01.51-.1.46-.31.84-.82.9-.58.06-3.36-1.07-3.97-1.41-.17-.09-.28-.32-.44-.36-.49-.15-1.29.13-1.83-.27-.13-.1-.17-.3-.22-.33-.12-.07-.33.02-.48-.07-.11-.06-.84-2.08-.98-2.42-.21-.51-.75-1.37-.87-1.83-.09-.34.04-.79,0-.91-.07-.19-.47-.31-.54-.75-.19-1.17.12-5.35.46-6.53.33-1.13,3.28-5.11,4.34-5.46.3-.1.58,0,.87-.13.26-.11.7-.67.93-.77.22-.1.49-.02.77-.13.92-.34,2.36-1.46,3.33-1.97.87-.47,1.8-.85,2.7-1.25.07-.09-.19-.39-.26-.49-1.95-2.74-3.98-5.15-5.72-8.08-.18-.3-.85-1.71-.94-1.8-.13-.12-.46-.11-.65-.2-.41-.2-.75-.75-.73-1.22-1.97.13-2.11-1.86-1.89-3.34.15-1.02,1.19-3.38,1.94-4.06.23-.2.55-.3.75-.55l2.1-3.15c-.12,0-.22-.07-.3-.15-1.79-1.58-3.3-3.45-4.61-5.44-1.34.35-2.02.99-3.13-.21-1.71-1.84-3.28-5.32-3.05-7.85.05-.56.14-1.02.79-.96-.15-1.38.76-5.87,2.15-6.4.31-.12.62.03.65,0,.05-.03.39-.83.52-1.03.7-1.04,1.85-2.21,2.89-2.91.3-.2,1.71-1.02,1.96-1.04.24-.02.33.29.34.48h0ZM13.6,12.5c-1.04.39-2.09,1.1-2.9,1.85-.27.25-1.38,1.43-1.4,1.71,0,.09,0,.17.05.24,3.08,3.22,6.34,7,11.06,7.55l.29-.4c-1.82-1.26-3.42-3.1-4.68-4.92-1.26-1.81-2.36-3.76-2.42-6.03h0ZM21.1,13c-1.98-.52-4.1-.76-6.11-.24-.26.87,1.04,3.82,1.53,4.67.59,1.03,1.94,3.16,2.68,4.02.18.21,1.71,1.55,1.83,1.54l.66-.43c-.41-.84-.75-1.83-.94-2.75-.34-1.6-.48-3.82-.12-5.42.11-.49.4-.89.47-1.38h0ZM25.7,15.4c-1.22-.64-2.5-1.26-3.9-1.4-.43,2.74-.48,5.54.4,8.2l1.19-.4c.13-1.66.36-3.47,1.22-4.92.29-.49.71-.82.98-1.22.06-.08.14-.11.1-.25h0ZM25.2,22.09c.44-1.5,1.27-2.99,2.6-3.85-.42-.64-1.02-1.05-1.67-1.44-.32-.05-1.01,1.51-1.15,1.82-.42.94-.73,1.93-.98,2.93l.09.19,1.1.35ZM8.09,17.31c-.37-.21-1.16,1.12-1.31,1.42-.52,1.07-.71,2.35-.84,3.52.03.2,1.41.83,1.69.96,3.88,1.79,8.09,2.77,12.35,1.87l.11-.79c-1.2.01-2.4-.51-3.5-.95-2.8-1.13-5.66-2.86-7.75-5.04-.14-.15-.71-.96-.76-.99h0ZM42.39,18.41c-.24-.15-1.97.66-2.31.82-.91.42-2.12,1.02-2.98,1.52-.8.47-1.14.88-1.68,1.62-.2.28-.94,1.34-1.02,1.58-.04.14.01.18.15.15l.2-.2c.25,0,.94,2.22.85,2.6.24.03.16,0,.21-.14.3-.84.44-1.71.87-2.53,1.12-2.14,4.15-3.59,6.52-3.63-.05-.69-.57-1.17-.81-1.79h0ZM52.3,24.19c-.16-.73-.35-1.69-.71-2.34-.34-.6-1.75-1.19-2.42-1.48-1.69-.73-3.6-1.35-5.47-1.28l.41,1.09c2.63.13,5.25.99,7.29,2.66l.9,1.35h0ZM28.49,20.68l-.49-1.15c-.84,0-2.67,2.17-2.36,2.85.25.55.73-.36,1-.6.52-.47,1.18-.9,1.85-1.11ZM48.4,36.89c1.19-1.02,2.29-2.3,2.88-3.77,1.23-3.08,1.71-5.85.04-8.89-2.39-4.36-10.2-4.81-13.52-1.29-1.17,1.24-2.43,6.07-2.5,7.8-.02.65.47,3.64.75,4.15.03.05.12.13.15.1.28-1.32,1.73-2.27,3-2.55,1.71-.38,4.39.48,6.08,1.03,1.86.6,3.55.98,3.12,3.43h0ZM28.5,21.69c-1.02-.12-1.57.82-2.3,1.35.29.43.9.1,1.35.05.34-.04.7.02,1.05,0l-.1-1.4ZM23.17,22.21c-.76.17-1.25,1.53-1.25,2.23,0,1.91,2.32,3.65,3.93,2.25,1.79-1.56-.16-5.05-2.68-4.48h0ZM26.5,26.69c-2.46,2.46-5.94-.52-4.8-3.5-.48.35-1.01,1.35-1,1.94.02,1.12,1.28,2.77,2.3,3.2,1.34.56,3.17-.2,3.5-1.65ZM28.39,23.9c-.57-.1-1.11-.34-1.69-.11l.31.99,1.23.32c.19-.02.18-1,.15-1.19h0ZM5.2,23.79c-.57,2.52.77,5.31,2.22,7.33,1.01,1.41,1.06,1.64,2.81,1.04,1.68-.57,3.82-1.57,5.44-2.36.61-.29,4.65-2.4,4.72-2.78l-.55-1.33c-3.44.76-6.92.81-10.36-.04-1.51-.37-3.07-.87-4.28-1.87ZM50.8,40.58c3.86-1.74,6.93-3.77,7.57-8.27.15-1.03.35-3.52-.19-4.35-.86-1.34-3.28-2.3-4.53-3.26.06.83.13,1.61.05,2.45-.15,1.61-.52,3.98-1.15,5.45-.21.49-1.09,1.74-1.14,2.06-.19,1.03-.02,2.61-.11,3.69-.06.77-.37,1.49-.5,2.25h0ZM26.9,26.99c.16.18,1.06-1.03,1.09-1.17.03-.21-.57-.48-.74-.53-.19-.06-.13.03-.15.14-.07.52.07,1.02-.2,1.55h0ZM24.3,39.49v-1.85c0-.43-.34-1.55-.47-2.03-.27-.96-1.76-5.07-2.7-5.31-.12-.05-.19.02-.28.08-.48.32-1.02.93-1.5,1.3-1.76,1.37-3.64,2.6-5.55,3.75-.02.13.03.2.1.3.15.22,2.13,2.09,2.28,2.13.17.05.68-.1.98-.09.57.02,1.42.14,1.95.36.23.09.7.46.85.46.08,0,.07-.24.22-.29.86-.3,3.21.98,4.14,1.19h0ZM59.5,30.49c.1,2.61-1.05,5.28-2.66,7.29-1.54,1.93-3.9,2.97-5.99,4.21-.32,1-.68,5.64.15,6.15,4.56-.33,9.24-3.45,11.29-7.52,1.35-2.68,2.81-5.56.17-8.04-.85-.79-1.98-1.47-2.95-2.1h0ZM12,31.89l-.8.35,2.2,2.75-1.4-3.1h0ZM47.5,37.89c.48-.7.32-2.38-.35-2.9-.35-.28-1.76-.66-2.28-.82-2.73-.87-7.17-2.31-8.34,1.42l.16.8c.84-2.41,2.79-2.31,4.94-1.99,1.56.24,5.34.97,5.74,2.76.05.22-.07.64.12.73h0ZM30.4,34.09l-3-.1c-.18,1.68-.76,3.96-1.95,5.2-.22.23-.57.29-.65.65-.13.56.35.52.74.85.58.48.97,1.22,1.55,1.75.4.37,1.59.99,1.66,1.44.03.21-.12.42-.01.6.21.34,1.19.39,1.16,1.15-.03.71-.73.73-.86.95-.18.3.17.91-.59,1.01-1.14.15-2.38-1.03-3.19-1.7-.61.58-1.67,1-2.51,1-.31,0-.96-.24-1.18-.19-.29.07-1.19,1.36-1.87,1.18,1.87,2.95,4.44,5.13,7.06,7.39.15.03.82-.85,1.03-1.04.91-.83,1.76-.99,2.91-1.31.04-.66.11-1.32.21-1.97.21-1.4,1.45-8.31.99-9.12-.12-.22-.58-.56-.81-.89-1.08-1.62-2.05-5.18-.7-6.85h0ZM31.79,34.4c-.87-.33-1.1-.28-1.44.59-.53,1.35-.1,3.04.5,4.29,1.6-.61.83-1.55.75-2.74-.05-.76.09-1.41.2-2.14h0ZM35.7,39.59c-1.54-1.49-1.23-4.12-3.35-5-1.04,1.64,1.2,4.35-1.34,5-.15.17.33,1.05.54,1.19.3-.27.69-.59,1.05-.75.23-.1,1.36-.45,1.55-.45h1.55ZM52.8,53.18c3.8-.54,8.53-1.58,11.25-4.5,2.33-2.5,3.2-4.79,2.32-8.22-.22-.87-.67-2.23-1.67-2.38-1.13,4.93-5.07,9.74-10.18,10.77-.87.17-1.74.19-2.61.34l.89,3.99h0ZM20.1,39.88c-.31-1.43-2.86-2.08-3.97-1.52-.24.12-1.76,2.32-1.73,2.46l2,1.36c.07-.66.86-1.56,1.45-1.8.13-.05.19.02.15.15l-.4.75c.34.09.34-.2.51-.34.6-.49,1.21-.92,1.99-1.06h0ZM24.39,39.99c-1.03-.33-2.04-.9-3.09-1.16-.19-.05-.98-.27-1,0,.49.87.74,1.86.84,2.85.77.42,1.7.33,2.55.24.26-.16.82-1.76.69-1.94h0ZM35.8,40.09c-.28-.4-3.73.21-3.89,1.14l.33.26c.91-.89,2.22-1.15,3.46-.9l.11-.49h0ZM25.05,40.79l-.65,1.45c0,.22.84,1.15,1.05,1.15.38-.1.8-.92.75-1.25-.02-.17-1.06-1.35-1.15-1.35h0ZM15.88,43.37l.27-.48c-.48-.26-1.61-1.3-2.1-1.3-.58,0-1.49,1.03-1.65,1.56-.05.15,0,.16.14.14.29-.04.6-.17.91-.19.89-.06,1.57.13,2.43.28h0ZM23.9,42.39c-.84.14-1.67.12-2.5-.05l.2.65c.57-.19,1.19.07,1.76.2.28,0,.39-.58.54-.79h0ZM26.8,42.68l-.49,1.07c-.04.44,1.51,1.03,1.89.58.58-.59-1.13-1.21-1.4-1.65h0ZM25.8,43.88c-.67.1-1.05-.44-1.5-.8.03.18-.16.2,0,.34.4.36.96.69,1.5.76v-.3s0,0,0,0ZM23,43.49l-1.3-.1c.09.21,1.01.62,1.14.59l.16-.49h0ZM15.5,44.08c-1.17-.21-2.42-.37-3.58.02-.46,1.28-1.22,3.98.48,4.58.26-1.52,1.53-2.05,2.89-2.31,0-.79,0-1.52.21-2.29h0ZM19.6,46.88c.06.08,1.58-.93,1.6-1.15.04-.42-.44-1.45-.81-1.7-.53-.35-.51-.12-.63.36-.2.81-.3,1.67-.16,2.48h0ZM23.54,44.95c-.12-.1-.14-.3-.34-.41-.33-.18-.95-.18-1.29-.46.01.49-.09,1.02.2,1.45l2-.05c.16-.13-.48-.47-.56-.53h0ZM25,44.69l-1.2-.6c.23.45.59.79,1.05,1l.15-.4h0ZM29.48,45.4c-.03-.05-1-.59-1.05-.6-.51-.09-1.43.34-2.03-.21-.36.51,1.52,1.51,1.97,1.58s1.39-.26,1.11-.76ZM25.88,44.91c-.09-.05-.19-.02-.28-.02,0,.2-.04.43.02.63.16.54,2.57,2.1,2.94,1.58l.04-.51c-.73.01-1.45-.39-2-.85-.2-.16-.67-.8-.72-.83h0ZM14,49.98c-.11-1.16.79-2.07,1.66-2.7l-.06-.4c-1.06.29-2.68,1.15-2.25,2.5.05.15.54.72.65.59h0ZM54.8,62.58c-.42-2.25-.73-5.78-2.08-7.67-.86-1.2-1.46-.76-2.62-1.18-1.23-.44-2.83-2.51-3.28-3.72-.24-.66-.24-1.33-.58-1.92l-1.55-.76c-1.84,3.02-3.21,6.32-5.36,9.15-.14.29.16.41.28.63,1.04,2.01.49,3.83-.5,5.73l-1.82,2.33,1.71-.24c.15-.6.55-2.42,1.25-2.55,3.87.01,7.74-.05,11.6.1.98.04,1.98.3,2.95.1h0ZM32.68,53.3c-.2-.28-2.2.11-2.6.21-3.96.95-5.05,6.25-3.12,9.46.68,1.13,3.33,3.21,4.59,3.61,2.31.74,5.31-1.14,6.64-2.97,1.24-1.71,2.32-4.57.87-6.43l-.75.95c-.19.12-2-.61-2.33-.77-1.7-.8-3.11-2.09-3.29-4.06h0ZM26,56.88c-1.26.42-2.58,1.54-2.8,2.9l2.3-1.15.5-1.75h0ZM41.9,67.18c-.06-.6-.12-1.22-.25-1.8-.1-.45-.64-2.65-1.29-2.49-.41.12-1,1.96-.87,2.09l1,.05.57,1.63.03.52h.8s0,0,0,0ZM50,62.98l-8.8-.05c.74,1.28.94,2.71,1.16,4.15l1.13-.02c.13-.08.24-2.44,1.04-2.91.5-.29,1.39-.34,1.95-.55l3.52-.63h0ZM48.6,78.87c.84.14,1.71.04,2.55.1,6.8.51,13.93,2.54,20.63.23.64-.22,2.97-1.21,3.33-1.67.19-.24.23-.8.28-1.12.35-2.2.34-5.16,0-7.36s-.71-2.51-2.58-3.52c-2.48-1.34-6.71-1.76-9.55-2.05-4.77-.48-10.03-.61-14.77.13-.9.14-1.8.35-2.68.57l1.25,1.2c2.53,3.01,2.74,6.47,2.24,10.23-.15,1.11-.46,2.17-.69,3.26h0ZM47.9,72.17c.11-1.19.66-2.82.35-4-.16-.64-1.33-2.38-1.8-2.9-1.93-2.08-2.32,0-2.45,1.8,1.24-.5,2.24.84,2.72,1.83.46.95.57,2.04.95,2.95.05.12.05.3.23.32h0ZM14.3,64.98c-1.67.98-2.59,2.45-2.39,4.44.04.35.25,1.35.66,1.45.12.03,1.43-.11,1.43-.23-.97-1.12-1.16-2.64-.62-4.02.23-.59.68-1.05.92-1.63ZM12.2,71.77c-.13-.4-.41-.67-.58-1.07-.28-.69-.4-1.53-.31-2.26.1-.85.61-1.57.89-2.36-1.12,1.1-2.24,2.31-3.07,3.65,0,.12.91,1.59,1.07,1.7.23.17,1.86.47,2,.35h0ZM33.4,67.18h-1.55c-.27,0-1.16-.65-1.6-.5l-3.56.85c-.16.12-.06.16.06.24,1.63,1.07,3.3.97,5.06.29l1.57-.88h0ZM21.7,69.67c-.08-.09-2.16.72-2.25.8-.49.5.07,3.47.28,4.22.4,1.43,1.09,2.81,2.07,3.93.26.3.7.37.6.85-.3.3-1.46-1.15-1.64-1.41-1.38-2-2.2-4.99-1.86-7.39-.08-.08-2.09.75-2.2.85-.33.3-1.26,2.2-1.48,2.72s-.74,1.58-.69,2.06c.25,2.5,3.15,6.58,6.05,5.4.41-.17,1.65-1.04,1.93-1.37.34-.4.25-2.04.69-2.61,0-.2-.48-.54-.62-.74-1.59-2.19-1.47-4.77-.86-7.29h0ZM12.7,73.07c-1.62.03-2.92-1.14-4.1-2.1-.23,1.95-.52,3.93-.35,5.9.53.34,2.33,1.87,2.88,1.78.24-.04.81-.63.96-.85.83-1.25.55-3.3.62-4.73h0ZM25.05,72.82c-1.62-.04-1.93,3.31-.59,3.84,2.14.86,2.83-2.59,1.41-3.51-.17-.11-.62-.33-.82-.33h0ZM24.9,77.37c2.16.43,3.1-1.51,2.6-3.4-.26.12,0,.62,0,.84-.02.82-.51,1.97-1.32,2.28l-1.27.28h0ZM16.2,80.57c-.96-1.04-1.58-2.33-1.95-3.7-.54.98-1.11,1.9-2.04,2.56l.39.87c.65.33,1.48.02,1.76.87.47-.57,1.14-.77,1.85-.6h0ZM82.8,78.37l-7.14-.39-.12.08c-.35,1.4-.87,2.71-1.95,3.7l7.55-2.6,1.65-.8h0ZM10.3,82.37c.12.11,1.22-.77,1.28-.97.15-.5-.2-1.35-.29-1.86l-.09-.11-2.6-1.25,1.7,4.2h0ZM24.98,79.39l-1.38-.62c-.39,1.45-.77,2.75-2.27,3.38-.64.27-1.24.27-1.88.42-.09.02-.22-.04-.15.15.25.64,1.54,1.64,2.25,1.66.96.03,3.26-2.24,3.55-3.2-.35.04-1.7-.52-1.7-.85l.24-.24c.48.29.97.65,1.56.59l-.22-1.28h0ZM61.28,121.69v10.2l23.7-8.3M85.08,122.89v-43.78h0s-23.25,8.09-23.25,8.09l-.05,16.65c.1.75,1.43.99,1.41,2.2-.03,1.61-.58,2.96-1.4,4.3.25,3.38-.34,7.27-.01,10.6M44.09,79.98l-2.62.09-.27.6c1.05.18,2.13.33,3.2.3l-.31-.99ZM27.89,81.08c-.71-.08-1.26-.51-1.89-.81.05,1.08-.67,2.37-1.45,3.1-.6.55-1.4.86-1.94,1.47,1.27,2.12,2.84.4,3.94-.86.25-.29,1.14-1.38,1.25-1.65.09-.23-.36-.13-.52-.17-.42-.1-1.11-.24-.97-.78l1.6.4v-.69s-.01,0-.01,0ZM16.9,81.97c.28-.32-.7-.96-1.01-.95l-1.34.55-.15,1,2.5-.6h0ZM13.7,81.37c-.39.06-1.05-.1-1.4.05-.41.19-1.86,1.74-.55,1.75.19,0,1.78-.2,1.86-.25.36-.23.04-1.19.1-1.55h0ZM46.2,82.67c-.59.2-.97-.63-1.35-.7-.57-.11-1.37.11-2,.1-.74,0-1.51-.18-2.3-.11-.33.03-2.93.8-2.94.95.22.24.53.98.8,1.1.19.09,1.61.26,1.84.25.75-.03,2.95-.8,3.88-1.03.56-.13,1.3-.21,1.82-.38.11-.04.24-.03.26-.19h0ZM14.1,83.47l3.65.2.24-.16c.23-.25,0-1.11-.32-1.12-.53-.01-2.81.47-3.3.7-.16.08-.31.17-.28.37h0ZM68.7,83.47c-2.63.37-5.22,1.04-7.85,1.4-1.15.16-2.65.34-3.79.41-1.67.09-3.42-.07-5.1,0-.12,0-.37-.08-.35.1l9.34.9,7.76-2.79h0ZM17.49,84.18l-3.29-.21,1.4.65c.78.24,2.07,1.04,1.88-.43ZM60.5,102.96v-15.44c-.19-.18-.58-.21-.85-.25-3.01-.38-6.17-.6-9.2-.9-.1,0-.34-.04-.35.05,1.5,3.47,3.28,6.85,5.18,10.11,1.55,2.66,2.42,4.36,4.92,6.28.1.08.13.19.3.15h0ZM27.68,128.54c-.17.04-.29-.1-.24.2l33.2,3.2-.08-10.01M60.53,112.15c-1.43,1.37-3.28,3.96-5.54,3.59-.28-.04-.51-.34-.71-.2-.52.35-.25.74-.24,1.16,0,1.6-.83,2.7-1.85,3.85-.75.85-2.79,2.47-3.26,3.24-.08.13,0,.26-.04.35-.08.14-1.12.41-1.3.4-.13,0-.22-.15-.29-.15-.06,0-.54.28-.71.24-.16-.04-.08-.33-.21-.38-.33-.12-1.02-.13-1.43-.25-1.01-.28-2.05-.73-2.97-1.23-.66-.37-1.94-.95-1.73-1.82l-.9-.05-1.68-1.62c-.23-.91.08-2,.23-2.93l1.24-.61.23-1.47c1.64-.32,3.2-.95,4.72-1.63.42-.19.78-.49,1.14-.66,1.19-.58,1.93-.18,1.58-1.93-.11-.52-.51-1.77-.81-2.19-.42-.59-1.31-.94-1.66-1.74-.42-.97.13-1.65.07-1.87-.05-.16-1.55-1.84-1.8-2.1-2.87-3.03-6.15-5.26-9.25-7.94-2.09-1.81-3.9-3.96-6.1-5.65h0s0,39.39,0,39.39M54.6,115.15c1.27.51,1.1.12,1.74-.59,1.15-1.29,3.4-3.28,3.84-4.96.15-.57.05-1.04.12-1.58.19-1.44.95-2.29-.31-3.62-1.33-1.4-3-2.47-4.41-3.69-.79-.69-.97-1.6-2.12-1.98-.29-.09-1.65-.31-1.68.08-.01.18.48.05.62.07,1.23.19,2.53,2.07,2.67,3.24.19,1.67-.69,2.82-1.59,4.09.52,1.86,1.01,3.76,1.2,5.69.11,1.08.22,2.19-.1,3.24h0ZM48.7,104.36c.2.79,1.48.81,2.13.68.65-.13,2.35-1.94,2.59-2.61.43-1.18.31-2.83-1.12-3.17.12.41.54.62.72,1.03.48,1.1-.25,2.33-.97,3.17-.86,1.01-2.12,2.05-3.35.9h0ZM50.95,105.46c-.42.08-1.22,0-1.7,0-.05,0-.26-.28-.25.05.13.11.26.31.4.4.23.14,2.25.56,2.55.55,1.05,0,2.48-2.11,2.62-3.07.13-.86.05-1.79-.43-2.53-.17.78-.17,1.59-.61,2.29-.31.51-2.06,2.21-2.59,2.31h0ZM44.6,104.76c-.05.57-.05,1.01.59,1.16,1.06.25,2.3-1.23,2.49-2.19l-.48-.46c-.2.66-.82,2.27-1.7,2.06-.37-.09-.55-.49-.9-.56h0ZM45,106.36c.67.91,1.35,1.13,2.4.65.37-.17,1.22-.84,1.18-1.28,0-.07-.72-1.31-.78-1.26-.43,1.09-1.55,2.09-2.8,1.9h0ZM52.6,116.56h-1.45c-1.1,0-4.57-1.88-5.19-2.81-.09-.14-.25-.39-.26-.55-.02-.38.43-.67.35-1.04-.67.11-1.22.38-1.14,1.14.17,1.64,3.87,3.17,5.17,3.94l1.52-.23,1-.45h0ZM41.91,113.97c-.04.24-.07.53.14.68.76-.56,1.96-.77,2.35-1.7l-2.49,1.01h0ZM44.6,113.76c-.09-.07-.6.38-.77.48-.32.18-.66.34-.99.51-.33.16-1.27.45-1.47.61-.47.35.19,1.29.54,1.55.91.67,3.18,2.12,4.25,2.24.35.04,1.1.06,1.41-.07.45-.18,1.26-1.35,1.72-1.67-1.56-1.15-3.87-1.74-4.7-3.65h0ZM41.5,114.16l-1.78.52-.12.78c.13.13,1.71-.52,1.99-.61l-.09-.69h0ZM41.4,117.16c-.21-.55-.69-.94-.6-1.6l-2.41.96c-.08.37.76,1.29,1.07,1.52l1.94-.89h0ZM50.9,120.96c.13.09,1.02-.84,1.15-1,.87-1,1.65-2.21,1.45-3.6-.49.06-.41.32-.6.55-.3.37-2.04.68-2.56.75-.19.02-.39-.08-.55-.04-.1.02-.57.41-.59.5.64.89,1.36,1.76,1.69,2.83h0ZM39.2,120.16v-1.65c0-.1-.9-1.15-1.1-1.25.03.54-.29,1.36,0,1.85.16.28.85.78,1.11,1.04h0ZM42,117.46c-.4-.04-2.23.86-2.35,1.1-.1.22-.09,2.21.45,1.85l.15-1.65c.62-.37,1.33-.68,1.75-1.3h0ZM47.5,119.56h-1.45c-.28,0-1.44-.48-1.75-.65-.55-.29-1.03-.72-1.55-1.06l-1.75,1.36c1.19.79,2.48,1.55,3.88,1.92.39.1,1.82.42,2.08.24s.71-1.63.54-1.81h0ZM50.09,120.85c.06-.08-.86-1.53-1-1.74-.08-.12-.35-.56-.49-.45-.01.34-.5.51-.58.77-.08.25-.08.73-.15,1.05-.07.31-.27.56-.27.88.95.43,1.69-.03,2.49-.51h0ZM40.6,119.56c-.08.09.03,1.68.15,1.9.07.12,1.07.7,1.28.82,1.37.79,3.12,1.5,4.71,1.59.18,0,.94.05.95-.15l-.8-1.8c-1.57-.17-2.88-.5-4.29-1.21-.69-.35-1.31-.82-2.01-1.14h0Z"/>
  <path class="cls-1" d="M48.6,78.87c.23-1.09.54-2.16.69-3.26.51-3.77.3-7.23-2.24-10.23l-1.25-1.2c.88-.23,1.78-.43,2.68-.57,4.74-.74,10-.6,14.77-.13,2.84.28,7.07.7,9.55,2.05,1.87,1.01,2.25,1.38,2.58,3.52s.35,5.16,0,7.36c-.05.32-.09.87-.28,1.12-.36.46-2.68,1.45-3.33,1.67-6.69,2.32-13.83.28-20.63-.23-.84-.06-1.71.04-2.55-.1h0ZM71.9,67.58c-3.16.2-6.3-.08-9.44-.41-2-.21-4.26-.71-6.22-.79-.67-.03-.54.38.11.49,3.46.58,8.1,1.1,11.59,1.21,1.28.04,2.59.04,3.86-.15l.1-.35h0Z"/>
  <path class="cls-1" d="M54.8,62.58c-.97.21-1.97-.06-2.95-.1-3.86-.15-7.73-.09-11.6-.1-.7.13-1.1,1.96-1.25,2.55l-1.71.24,1.82-2.33c.99-1.9,1.54-3.72.5-5.73-.12-.23-.42-.35-.28-.63,2.15-2.83,3.52-6.13,5.36-9.15l1.55.76c.34.59.34,1.26.58,1.92.45,1.21,2.05,3.28,3.28,3.72,1.16.42,1.76-.02,2.62,1.18,1.35,1.89,1.65,5.42,2.08,7.67h0Z"/>
  <path class="cls-1" d="M30.4,34.09c-1.35,1.67-.39,5.23.7,6.85.22.33.68.67.81.89.46.81-.78,7.71-.99,9.12-.1.65-.17,1.32-.21,1.97-1.15.32-2,.48-2.91,1.31-.21.19-.88,1.07-1.03,1.04-2.62-2.25-5.19-4.44-7.06-7.39.68.17,1.58-1.12,1.87-1.18.22-.05.87.19,1.18.19.84,0,1.9-.42,2.51-1,.81.67,2.05,1.84,3.19,1.7.76-.1.41-.71.59-1.01.13-.22.84-.24.86-.95.03-.76-.95-.8-1.16-1.15-.11-.19.04-.4.01-.6-.07-.45-1.25-1.07-1.66-1.44-.58-.53-.97-1.27-1.55-1.75-.4-.33-.87-.29-.74-.85.08-.36.43-.42.65-.65,1.18-1.25,1.77-3.52,1.95-5.2l3,.1h0Z"/>
  <path class="cls-1" d="M59.5,30.49c.98.63,2.1,1.3,2.95,2.1,2.65,2.48,1.18,5.35-.17,8.04-2.05,4.07-6.72,7.19-11.29,7.52-.83-.51-.47-5.15-.15-6.15,2.09-1.24,4.44-2.28,5.99-4.21,1.61-2.01,2.76-4.68,2.66-7.29h0Z"/>
  <path class="cls-1" d="M32.68,53.3c.18,1.97,1.58,3.26,3.29,4.06.33.16,2.14.89,2.33.77l.75-.95c1.45,1.86.37,4.72-.87,6.43-1.33,1.83-4.33,3.71-6.64,2.97-1.25-.4-3.91-2.48-4.59-3.61-1.93-3.21-.84-8.51,3.12-9.46.4-.1,2.4-.49,2.6-.21h0ZM30.78,56.4c-1.73.1-2.75,2.03-2.23,3.57,1.04,3.09,5.66,2.79,5.14-1.14-.17-1.26-1.63-2.51-2.91-2.44h0Z"/>
  <path class="cls-1" d="M60.5,102.96c-.17.04-.2-.07-.3-.15-2.49-1.93-3.36-3.62-4.92-6.28-1.91-3.27-3.68-6.64-5.18-10.11,0-.09.25-.06.35-.05,3.03.3,6.19.52,9.2.9.27.03.66.07.85.25v15.44h0Z"/>
  <path class="cls-1" d="M52.8,53.18l-.89-3.99c.87-.15,1.74-.17,2.61-.34,5.12-1.03,9.05-5.83,10.18-10.77,1,.15,1.45,1.51,1.67,2.38.88,3.43.01,5.72-2.32,8.22-2.73,2.92-7.45,3.96-11.25,4.5h0Z"/>
  <path class="cls-1" d="M48.4,36.89c.43-2.45-1.27-2.83-3.12-3.43-1.69-.54-4.37-1.41-6.08-1.03-1.26.28-2.71,1.23-3,2.55-.03.03-.12-.05-.15-.1-.28-.51-.78-3.51-.75-4.15.07-1.73,1.33-6.56,2.5-7.8,3.32-3.52,11.13-3.07,13.52,1.29,1.67,3.04,1.19,5.81-.04,8.89-.59,1.47-1.69,2.75-2.88,3.77h0ZM43.38,21.52c-3.63.28-5.92,3.67-5.24,7.17.16.82.53,2,1.36,2.34.98.4,3.06.65,4.24.96,2.85.73,5.48,2.47,7.03-1.28,2.24-5.41-1.96-9.61-7.4-9.19Z"/>
  <path class="cls-1" d="M50.8,40.58c.13-.76.43-1.48.5-2.25.09-1.09-.08-2.66.11-3.69.06-.31.93-1.56,1.14-2.06.64-1.47,1-3.83,1.15-5.45.08-.83.01-1.62-.05-2.45,1.26.97,3.68,1.92,4.53,3.26.54.84.34,3.33.19,4.35-.64,4.5-3.71,6.53-7.57,8.27h0Z"/>
  <path class="cls-1" d="M5.2,23.79c1.21,1,2.77,1.5,4.28,1.87,3.43.84,6.91.8,10.36.04l.55,1.33c-.07.38-4.11,2.49-4.72,2.78-1.62.78-3.76,1.79-5.44,2.36-1.75.59-1.79.37-2.81-1.04-1.45-2.02-2.78-4.81-2.22-7.33h0Z"/>
  <path class="cls-1" d="M54.6,115.15c.32-1.05.2-2.16.1-3.24-.19-1.93-.68-3.83-1.2-5.69.9-1.27,1.78-2.42,1.59-4.09-.13-1.17-1.44-3.05-2.67-3.24-.14-.02-.63.12-.62-.07.02-.39,1.39-.17,1.68-.08,1.15.38,1.33,1.29,2.12,1.98,1.4,1.23,3.08,2.29,4.41,3.69,1.26,1.32.5,2.18.31,3.62-.07.54.03,1-.12,1.58-.44,1.67-2.69,3.66-3.84,4.96-.64.72-.47,1.11-1.74.59h0Z"/>
  <path class="cls-1" d="M21.7,69.67c-.61,2.52-.73,5.1.86,7.29.15.2.62.54.62.74-.43.57-.35,2.21-.69,2.61-.28.33-1.52,1.21-1.93,1.37-2.9,1.18-5.8-2.89-6.05-5.4-.05-.48.47-1.56.69-2.06s1.15-2.42,1.48-2.72c.11-.1,2.12-.93,2.2-.85-.34,2.4.48,5.39,1.86,7.39.18.26,1.34,1.7,1.64,1.41.1-.47-.34-.54-.6-.85-.98-1.12-1.67-2.5-2.07-3.93-.21-.75-.77-3.72-.28-4.22.08-.08,2.17-.89,2.25-.8h0Z"/>
  <path class="cls-1" d="M24.3,39.49c-.93-.21-3.28-1.49-4.14-1.19-.15.05-.14.29-.22.29-.15,0-.62-.36-.85-.46-.52-.21-1.38-.34-1.95-.36-.3-.01-.81.14-.98.09-.15-.04-2.13-1.91-2.28-2.13-.07-.1-.12-.17-.1-.3,1.91-1.15,3.79-2.38,5.55-3.75.48-.37,1.02-.98,1.5-1.3.09-.06.16-.13.28-.08.93.25,2.42,4.36,2.7,5.31.13.47.47,1.6.47,2.03v1.85h0Z"/>
  <path class="cls-1" d="M8.09,17.31c.05.03.62.84.76.99,2.1,2.18,4.95,3.92,7.75,5.04,1.1.44,2.3.97,3.5.95l-.11.79c-4.27.9-8.47-.08-12.35-1.87-.28-.13-1.66-.77-1.69-.96.13-1.18.32-2.45.84-3.52.15-.3.94-1.63,1.31-1.42h0Z"/>
  <path class="cls-1" d="M13.6,12.5c.06,2.27,1.16,4.22,2.42,6.03,1.26,1.82,2.86,3.66,4.68,4.92l-.29.4c-4.71-.55-7.98-4.33-11.06-7.55-.05-.07-.06-.15-.05-.24.02-.28,1.13-1.45,1.4-1.71.81-.75,1.86-1.46,2.9-1.85h0Z"/>
  <path class="cls-1" d="M21.1,13c-.07.49-.36.89-.47,1.38-.36,1.6-.22,3.82.12,5.42.19.92.53,1.91.94,2.75l-.66.43c-.13.01-1.65-1.33-1.83-1.54-.74-.86-2.1-2.99-2.68-4.02-.48-.85-1.78-3.8-1.53-4.67,2-.52,4.13-.27,6.11.24h0Z"/>
  <path class="cls-1" d="M12.7,73.07c-.06,1.43.21,3.49-.62,4.73-.14.22-.72.81-.96.85-.54.08-2.35-1.44-2.88-1.78-.17-1.97.12-3.95.35-5.9,1.18.96,2.47,2.13,4.1,2.1h0Z"/>
  <path class="cls-1" d="M44.6,113.76c.83,1.91,3.14,2.5,4.7,3.65-.47.32-1.27,1.49-1.72,1.67-.31.13-1.06.11-1.41.07-1.07-.13-3.35-1.58-4.25-2.24-.36-.26-1.01-1.2-.54-1.55.2-.15,1.14-.44,1.47-.61.33-.16.68-.32.99-.51.17-.1.68-.55.77-.48h0Z"/>
  <path class="cls-1" d="M25.7,15.4c.04.14-.04.17-.1.25-.27.4-.7.73-.98,1.22-.86,1.46-1.1,3.26-1.22,4.93l-1.19.4c-.88-2.66-.83-5.46-.4-8.2,1.4.14,2.67.77,3.9,1.4h0Z"/>
  <path class="cls-1" d="M42.39,18.41c.24.61.76,1.09.81,1.79-2.37.04-5.39,1.49-6.52,3.63-.43.82-.57,1.69-.87,2.53-.05.14.04.17-.21.14.09-.38-.6-2.59-.85-2.6l-.2.2c-.14.03-.19,0-.15-.15.08-.25.81-1.31,1.02-1.58.55-.74.88-1.15,1.68-1.62.86-.5,2.07-1.1,2.98-1.52.34-.16,2.07-.97,2.31-.82h0Z"/>
  <path class="cls-1" d="M23.17,22.21c2.52-.57,4.47,2.92,2.68,4.48-1.61,1.4-3.93-.34-3.93-2.25,0-.7.49-2.06,1.25-2.23h0ZM24.17,23.81c-.62.14-.65,1.2-.1,1.36,1.2.36,1.43-1.65.1-1.36Z"/>
  <path class="cls-1" d="M82.8,78.37l-1.65.8-7.55,2.6c1.08-.99,1.6-2.3,1.95-3.7l.12-.08,7.14.39h0Z"/>
  <path class="cls-1" d="M47.9,72.17c-.17-.03-.17-.2-.23-.32-.38-.91-.49-2-.95-2.95-.48-.99-1.47-2.33-2.72-1.83.13-1.81.53-3.88,2.45-1.8.48.51,1.64,2.26,1.8,2.9.3,1.18-.24,2.81-.35,4h0Z"/>
  <path class="cls-1" d="M24.98,79.39l.22,1.27c-.6.06-1.09-.3-1.56-.59l-.24.24c0,.33,1.35.88,1.7.85-.29.96-2.58,3.23-3.55,3.2-.71-.02-2-1.01-2.25-1.66-.07-.19.06-.12.15-.15.64-.15,1.24-.16,1.88-.42,1.51-.63,1.88-1.92,2.27-3.38l1.38.62h0Z"/>
  <path class="cls-1" d="M40.6,119.56c.7.32,1.32.79,2.01,1.14,1.41.71,2.71,1.04,4.29,1.21l.8,1.8c-.01.2-.77.16-.95.15-1.6-.09-3.34-.79-4.71-1.59-.21-.12-1.21-.7-1.28-.82-.13-.21-.23-1.81-.15-1.9h0Z"/>
  <path class="cls-1" d="M15.5,44.08c-.22.77-.21,1.49-.21,2.29-1.36.27-2.63.79-2.89,2.31-1.7-.59-.94-3.29-.47-4.58,1.16-.39,2.4-.24,3.58-.02Z"/>
  <path class="cls-1" d="M47.5,37.89c-.2-.09-.07-.51-.12-.73-.4-1.79-4.19-2.52-5.74-2.76-2.15-.33-4.1-.43-4.94,1.99l-.16-.8c1.17-3.74,5.61-2.3,8.34-1.42.51.16,1.93.55,2.28.82.66.53.82,2.2.35,2.9h0Z"/>
  <path class="cls-1" d="M35.7,39.59h-1.55c-.19,0-1.32.35-1.55.45-.36.16-.75.48-1.05.75-.21-.14-.69-1.02-.54-1.19,2.54-.66.3-3.36,1.34-5,2.12.87,1.81,3.51,3.35,5h0Z"/>
  <path class="cls-1" d="M46.2,82.67c-.02.16-.15.15-.26.19-.52.17-1.26.24-1.82.38-.93.22-3.13.99-3.88,1.03-.24,0-1.65-.16-1.84-.25-.27-.12-.58-.86-.8-1.1,0-.16,2.61-.92,2.94-.95.79-.07,1.56.1,2.3.11.63,0,1.43-.21,2-.1.38.07.76.9,1.35.7h0Z"/>
  <path class="cls-1" d="M50,62.98l-3.52.63c-.56.2-1.45.25-1.95.55-.8.47-.91,2.82-1.04,2.91l-1.13.02c-.21-1.44-.42-2.87-1.16-4.15l8.8.05h0Z"/>
  <path class="cls-1" d="M20.1,39.88c-.78.15-1.39.57-1.99,1.06-.17.14-.17.43-.51.34l.4-.75c.04-.13-.02-.2-.15-.15-.59.23-1.38,1.14-1.45,1.8l-2-1.36c-.03-.15,1.49-2.35,1.73-2.46,1.11-.56,3.67.09,3.97,1.52h0Z"/>
  <path class="cls-1" d="M68.7,83.47l-7.76,2.79-9.34-.9c-.02-.17.23-.09.35-.1,1.68-.07,3.44.1,5.1,0,1.14-.06,2.64-.25,3.79-.41,2.63-.36,5.22-1.03,7.85-1.4h0Z"/>
  <path class="cls-1" d="M27.89,81.08v.69s-1.59-.4-1.59-.4c-.13.53.55.67.97.78.16.04.62-.06.52.17-.11.28-1,1.37-1.25,1.65-1.1,1.26-2.67,2.98-3.94.86.54-.61,1.34-.91,1.94-1.47.79-.73,1.5-2.01,1.45-3.1.62.3,1.18.73,1.89.81h0Z"/>
  <path class="cls-1" d="M47.5,119.56c.17.17-.29,1.62-.54,1.81s-1.69-.13-2.08-.24c-1.39-.37-2.69-1.13-3.88-1.92l1.75-1.36c.52.34,1,.77,1.55,1.06.31.16,1.47.65,1.75.65h1.45Z"/>
  <path class="cls-1" d="M50.9,120.96c-.33-1.07-1.05-1.95-1.69-2.83.02-.09.49-.48.59-.5.16-.04.36.07.55.04.52-.07,2.26-.38,2.56-.75.18-.23.11-.49.6-.55.2,1.39-.58,2.6-1.45,3.6-.14.16-1.02,1.09-1.15,1h0Z"/>
  <path class="cls-1" d="M52.3,24.19l-.9-1.35c-2.05-1.66-4.66-2.53-7.29-2.66l-.41-1.09c1.86-.07,3.77.55,5.47,1.28.67.29,2.08.88,2.42,1.48.37.65.55,1.61.71,2.34Z"/>
  <path class="cls-1" d="M24.39,39.99c.13.18-.43,1.78-.69,1.94-.85.08-1.78.18-2.55-.24-.1-.99-.35-1.98-.84-2.85.02-.27.81-.05,1,0,1.05.25,2.06.83,3.09,1.16h0Z"/>
  <path class="cls-1" d="M25.05,72.82c.19,0,.64.22.82.33,1.42.92.74,4.37-1.41,3.51-1.34-.53-1.02-3.88.59-3.84h0ZM25.47,74.3c-.18-.17-.47-.1-.62.07l.04.86c.71.32,1.05-.49.58-.93Z"/>
  <path class="cls-1" d="M25.2,22.09l-1.1-.35-.09-.19c.25-1,.56-1.98.98-2.93.14-.31.83-1.87,1.15-1.82.65.39,1.25.79,1.67,1.44-1.33.86-2.16,2.35-2.6,3.85h0Z"/>
  <path class="cls-1" d="M50.95,105.46c.53-.09,2.28-1.8,2.59-2.31.43-.71.44-1.51.61-2.29.48.73.56,1.67.43,2.53-.15.96-1.58,3.07-2.62,3.07-.3,0-2.32-.41-2.55-.55-.14-.09-.27-.28-.4-.4-.02-.33.2-.05.25-.05.48,0,1.28.07,1.7,0h0Z"/>
  <path class="cls-1" d="M12.2,71.77c-.14.12-1.76-.18-2-.35-.16-.11-1.07-1.58-1.07-1.7.83-1.34,1.95-2.55,3.07-3.65-.28.79-.79,1.51-.89,2.36-.09.74.04,1.58.31,2.26.16.41.44.68.58,1.07h0Z"/>
  <path class="cls-1" d="M33.4,67.18l-1.57.88c-1.76.68-3.43.78-5.06-.29-.12-.08-.23-.12-.06-.24l3.56-.85c.43-.15,1.32.5,1.6.5h1.55,0Z"/>
  <path class="cls-1" d="M16.2,80.57c-.71-.17-1.38.03-1.85.6-.28-.85-1.1-.54-1.76-.87l-.39-.87c.93-.66,1.5-1.58,2.04-2.56.37,1.36.99,2.65,1.95,3.7h0Z"/>
  <path class="cls-1" d="M26.5,26.69c-.33,1.45-2.16,2.21-3.5,1.65-1.03-.43-2.28-2.08-2.3-3.2-.01-.59.52-1.6,1-1.94-1.14,2.98,2.34,5.96,4.8,3.5h0Z"/>
  <path class="cls-1" d="M52.6,116.56l-1,.45-1.52.23c-1.29-.77-5-2.31-5.17-3.94-.08-.76.47-1.03,1.14-1.14.08.37-.37.66-.35,1.04,0,.16.16.41.26.55.63.93,4.09,2.81,5.19,2.81h1.45Z"/>
  <path class="cls-1" d="M31.79,34.4c-.1.74-.25,1.39-.2,2.14.08,1.18.86,2.13-.75,2.74-.6-1.24-1.03-2.94-.5-4.29.34-.87.57-.92,1.44-.59h0Z"/>
  <path class="cls-1" d="M14.3,64.98c-.24.58-.68,1.04-.92,1.63-.54,1.37-.36,2.89.62,4.02,0,.13-1.31.26-1.43.23-.41-.09-.62-1.09-.66-1.45-.2-1.99.72-3.46,2.39-4.44Z"/>
  <path class="cls-1" d="M10.3,82.37l-1.7-4.2,2.6,1.25.09.11c.1.52.44,1.36.29,1.86-.06.2-1.16,1.08-1.28.97h0Z"/>
  <path class="cls-1" d="M41.9,67.18h-.8s-.03-.52-.03-.52l-.57-1.63-1-.05c-.13-.13.45-1.97.87-2.09.64-.17,1.19,2.03,1.29,2.49.12.59.19,1.21.25,1.8h0Z"/>
  <path class="cls-1" d="M41.4,117.16l-1.94.89c-.31-.24-1.15-1.16-1.07-1.52l2.41-.96c-.09.66.39,1.05.6,1.6h0Z"/>
  <path class="cls-1" d="M45,106.36c1.25.19,2.37-.81,2.8-1.9.06-.05.77,1.19.78,1.26.04.44-.81,1.11-1.18,1.28-1.05.48-1.73.26-2.4-.65h0Z"/>
  <path class="cls-1" d="M50.09,120.85c-.81.48-1.54.93-2.49.51,0-.32.2-.56.27-.88.07-.32.07-.8.15-1.05.08-.27.57-.43.58-.77.14-.1.42.34.49.45.14.2,1.06,1.66,1,1.74h0Z"/>
  <path class="cls-1" d="M15.88,43.37c-.86-.15-1.53-.34-2.43-.28-.31.02-.62.16-.91.19-.14.02-.19.01-.14-.14.16-.53,1.07-1.56,1.65-1.56.49,0,1.62,1.05,2.1,1.3l-.27.48h0Z"/>
  <path class="cls-1" d="M48.7,104.36c1.23,1.15,2.49.11,3.35-.9.71-.83,1.45-2.06.97-3.17-.18-.41-.6-.62-.72-1.03,1.43.34,1.55,1.99,1.12,3.17-.24.66-1.95,2.47-2.59,2.61-.64.13-1.93.12-2.13-.68h0Z"/>
  <path class="cls-1" d="M13.7,81.37c-.06.37.27,1.32-.1,1.55-.08.05-1.67.25-1.86.25-1.31-.01.14-1.56.55-1.75.35-.16,1,0,1.4-.05h0Z"/>
  <path class="cls-1" d="M28.49,20.68c-.67.21-1.33.64-1.85,1.11-.27.24-.75,1.14-1,.6-.31-.68,1.52-2.85,2.36-2.85l.49,1.15Z"/>
  <path class="cls-1" d="M14.1,83.47c-.03-.2.12-.3.28-.37.48-.23,2.77-.72,3.3-.7.31,0,.54.87.32,1.12l-.24.16-3.65-.2h0Z"/>
  <path class="cls-1" d="M19.6,46.88c-.13-.82-.04-1.68.16-2.48.12-.48.1-.71.63-.36.37.24.85,1.28.81,1.7-.02.22-1.54,1.22-1.6,1.15h0Z"/>
  <path class="cls-1" d="M26,56.88l-.5,1.75-2.3,1.15c.22-1.36,1.54-2.48,2.8-2.9h0Z"/>
  <path class="cls-1" d="M29.48,45.4c.29.5-.67.82-1.11.76s-2.34-1.07-1.97-1.58c.6.55,1.51.12,2.03.21.06.01,1.02.55,1.05.6Z"/>
  <path class="cls-1" d="M25.05,40.79c.09,0,1.13,1.18,1.15,1.35.05.33-.37,1.15-.75,1.25-.21,0-1.05-.94-1.05-1.15l.65-1.45h0Z"/>
  <path class="cls-1" d="M14,49.98c-.11.13-.61-.44-.65-.59-.42-1.35,1.19-2.21,2.25-2.5l.06.4c-.87.63-1.77,1.54-1.66,2.7h0Z"/>
  <path class="cls-1" d="M44.09,79.98l.31.99c-1.07.03-2.15-.12-3.2-.3l.27-.6,2.62-.09Z"/>
  <path class="cls-1" d="M44.6,104.76c.35.07.53.47.9.56.88.22,1.5-1.4,1.7-2.06l.48.46c-.19.97-1.43,2.44-2.49,2.19-.64-.15-.64-.59-.59-1.16h0Z"/>
  <path class="cls-1" d="M16.9,81.97l-2.5.6.15-1,1.34-.55c.3,0,1.28.62,1.01.95h0Z"/>
  <path class="cls-1" d="M28.5,21.69l.1,1.4c-.34.02-.71-.03-1.05,0-.45.05-1.06.38-1.35-.05.73-.53,1.28-1.47,2.3-1.35Z"/>
  <path class="cls-1" d="M39.2,120.16c-.26-.27-.94-.76-1.11-1.04-.29-.49.04-1.31,0-1.85.2.1,1.1,1.15,1.1,1.25v1.65h0Z"/>
  <path class="cls-1" d="M26.8,42.68c.27.44,1.98,1.07,1.4,1.65-.38.45-1.93-.14-1.89-.58l.49-1.07h0Z"/>
  <path class="cls-1" d="M25.88,44.91s.52.66.72.83c.55.46,1.27.86,2,.85l-.04.51c-.36.53-2.78-1.04-2.94-1.58-.06-.2-.01-.43-.02-.63.09,0,.19-.03.28.02h0Z"/>
  <path class="cls-1" d="M23.54,44.95c.08.07.72.41.56.53l-2,.05c-.29-.43-.18-.97-.2-1.45.35.27.96.27,1.29.46.2.11.22.31.34.41h0Z"/>
  <path class="cls-1" d="M17.49,84.18c.19,1.47-1.11.68-1.88.43l-1.4-.65,3.29.21Z"/>
  <path class="cls-1" d="M35.8,40.09l-.11.49c-1.23-.26-2.55.01-3.46.9l-.33-.26c.16-.93,3.62-1.54,3.89-1.14h0Z"/>
  <path class="cls-1" d="M42,117.46c-.42.62-1.13.93-1.75,1.3l-.15,1.65c-.54.37-.55-1.63-.45-1.85.12-.24,1.95-1.13,2.35-1.1h0Z"/>
  <path class="cls-1" d="M28.39,23.9c.03.19.04,1.17-.15,1.19l-1.23-.32-.31-.99c.58-.23,1.12.01,1.69.11h0Z"/>
  <polygon class="cls-1" points="12 31.89 13.4 34.99 11.2 32.24 12 31.89"/>
  <path class="cls-1" d="M41.5,114.16l.09.69c-.28.09-1.86.74-1.99.61l.12-.78,1.77-.52h0Z"/>
  <path class="cls-1" d="M23.9,42.39c-.15.21-.26.79-.54.79-.57-.13-1.19-.38-1.76-.2l-.2-.65c.83.17,1.66.19,2.5.05Z"/>
  <path class="cls-1" d="M41.91,113.97l2.49-1.01c-.39.93-1.59,1.14-2.35,1.7-.21-.16-.17-.45-.14-.68h0Z"/>
  <path class="cls-1" d="M24.9,77.37l1.27-.28c.81-.31,1.3-1.46,1.32-2.28,0-.22-.25-.71,0-.84.5,1.89-.44,3.82-2.6,3.4h0Z"/>
  <path class="cls-1" d="M26.9,26.99c.27-.53.13-1.03.2-1.55.01-.12-.04-.2.15-.14.17.05.78.32.74.53-.02.13-.92,1.34-1.09,1.17h0Z"/>
  <path class="cls-1" d="M23,43.49l-.16.49c-.13.03-1.06-.38-1.14-.59l1.3.1h0Z"/>
  <path class="cls-1" d="M25.8,43.88v.3c-.54-.07-1.1-.4-1.5-.76-.16-.14.03-.16,0-.34.45.36.83.9,1.5.8h0Z"/>
  <path class="cls-1" d="M25,44.69l-.15.4c-.46-.21-.82-.55-1.05-1l1.2.6h0Z"/>
  <path d="M71.9,67.58l-.1.35c-1.26.19-2.58.2-3.86.15-3.49-.12-8.13-.63-11.59-1.21-.66-.11-.79-.52-.11-.49,1.96.08,4.22.58,6.22.79,3.14.33,6.28.61,9.44.41h0Z"/>
  <path d="M30.78,56.4c1.28-.07,2.74,1.17,2.91,2.44.52,3.93-4.1,4.23-5.14,1.14-.52-1.54.5-3.48,2.23-3.57h0ZM30.47,56.9c-.65.11-1.2.67-1.42,1.28-.76,2.13,2.06,3.89,3.29,1.69.88-1.57-.05-3.28-1.87-2.97h0ZM30.3,61.28c.57.55,1.67.35,2.25-.1.76-.59.67-1.32.65-2.2l-.45,1.1c-.43.91-1.47,1.46-2.45,1.2h0Z"/>
  <path d="M43.38,21.52c5.43-.42,9.63,3.78,7.4,9.19-1.55,3.76-4.18,2.01-7.03,1.28-1.18-.3-3.26-.55-4.24-.96-.83-.34-1.2-1.52-1.36-2.34-.68-3.5,1.6-6.89,5.24-7.17ZM42.88,22.02c-.91.13-2.27,1.26-2.72,2.08-.79,1.44-1.37,5.04.09,6.19.48.38,3.74,1.03,4.53,1.17,2.83.49,4.83.93,5.57-2.46.48-2.21.35-4.2-1.56-5.64-1.42-1.07-4.19-1.59-5.91-1.33h0Z"/>
  <path d="M24.17,23.81c1.33-.29,1.1,1.71-.1,1.36-.55-.16-.52-1.22.1-1.36Z"/>
  <path d="M25.47,74.3c.47.44.12,1.25-.58.93l-.04-.86c.15-.17.44-.25.62-.07Z"/>
  <path class="cls-1" d="M30.47,56.9c1.82-.32,2.75,1.4,1.87,2.97-1.24,2.2-4.05.44-3.29-1.69.22-.61.77-1.17,1.42-1.28h0ZM31.18,59.25c.3-.29-.16-1.03-.63-.68-.6.44.14,1.15.63.68Z"/>
  <path class="cls-1" d="M30.3,61.28c.99.26,2.02-.29,2.45-1.2l.45-1.1c.02.88.11,1.61-.65,2.2-.58.45-1.68.65-2.25.1h0Z"/>
  <path class="cls-1" d="M42.88,22.02c1.73-.25,4.5.26,5.91,1.33,1.91,1.44,2.04,3.44,1.56,5.64-.74,3.4-2.75,2.95-5.57,2.46-.79-.14-4.06-.79-4.53-1.17-1.46-1.15-.88-4.75-.09-6.19.45-.82,1.81-1.94,2.72-2.08h0ZM45.4,25.89c-.05-.21.09-.46.07-.64s-.22-.35-.24-.52c-.04-.43.22-.84-.33-1.28-.04-.03-.72-.43-.77-.44-.47-.12-.58.47-.34.64.2.14,1.04-.32,1.11.54-.41-.26-.92-.24-1.38-.37-.24-.07-.94-.65-.89.1.04.58.54.19.7.19.14,0,1.15.23,1.24.3.25.21.66,1.03.47,1.37l.35.1h0ZM47.57,24.66c-.19.1-.89.34-1.03.14-.21-.31.58-1.88-.28-1.6-.27.09,0,1.16-.07,1.54-.08.52-.44.92-.7,1.35-.32-.13-.67-.15-.99.01-.04-.98-.64-.7-1.1-.95-.35-.19-.21-.29-.93-.56-.07-.03-.07-.18-.15-.19-.66-.15-.77.68-.18.68.22,0,.44-.15.69-.07.17.06.19.3.31.39.2.15.54.11.75.25.18.12.23.41.5.5l-.3.55c-.42-.36-1.18-.23-1.63-.42-.43-.18-.46-1.06-.56-1.14-.21-.13-.54,0-.6.23-.08.32.33.4.49.58.39.44.32.72,1.1.8-.44.81-1.78-.62-1.9.1s.45.34.74.36c.26.02.66.22.89.17s.53-.47.77-.54c.2-.06.4.08.6-.04v.34c-.84.28-1.13,1.12-2.12.75-.1-.04-.09-.18-.2-.22-.39-.18-.74.18-.49.49.2.28.47.04.66.06.26.03.63.19.85.14.3-.07,1.05-.74,1.35-.95h.14s.49.54.49.54c-.12.26-.31.61-.59.7-.26.09-.37-.05-.53-.02-.17.02-.45.38-.66.43-.47.12-.8-.41-1.03-.35l-.25.26.1.42c.4-.1.88.06,1.23.01.3-.04.44-.29.66-.36.28-.09.53.11.8-.14.09.44-.54,1.14-.94,1.1-.24-.02-.31-.36-.59-.3s-.4.58-.1.68c.04.01.82-.02.88-.04.05-.01.84-.5.88-.55.17-.18.45-1.62.27-1.9,1.06.1,1.45-1.06.8-1.8.4.09.44-.36.6-.45.15-.09.35-.01.5-.1.09-.05.12-.23.27-.33.42-.26.96-.08,1.13-.16.38-.18.25-.84-.34-.64-.12.04-.14.22-.19.25h0ZM47.81,27.08c-.27-.24.23-.76.44-.89.19-.13.84-.14.51-.6-.34-.49-.96.72-1.26.86-.14.06-.37-.07-.62.07-.33.17-.22.55-.87.38v.3c.58-.15.48.23.8.45.46.31.61.22.92.88.13.28,0,.84.52.66.19-.06.2-.37.15-.53-.06-.18-1.04-.74-.68-1.26.36-.11.59.37.84.39.39.03.57-.45.28-.7-.22-.2-.88.13-1.02,0h0Z"/>
  <path d="M31.18,59.25c-.49.47-1.23-.24-.63-.68.48-.35.93.39.63.68Z"/>
  <path d="M47.57,24.66c.05-.03.07-.21.19-.25.58-.2.72.46.34.64-.16.08-.71-.1-1.13.16-.16.1-.18.28-.27.33-.15.09-.35.02-.5.1-.16.09-.2.54-.6.45.65.74.26,1.9-.8,1.8.18.29-.1,1.73-.27,1.9-.04.04-.83.53-.88.55-.06.01-.84.05-.88.04-.3-.1-.17-.61.1-.68s.35.27.59.3c.4.04,1.03-.66.94-1.1-.27.25-.52.05-.8.14-.21.07-.36.32-.66.36-.35.05-.83-.11-1.23-.01l-.1-.42.25-.26c.24-.06.56.46,1.03.35.21-.05.49-.4.66-.43.15-.02.27.11.53.02.29-.1.48-.44.59-.7l-.49-.55h-.14c-.3.21-1.05.88-1.35.96-.22.05-.6-.11-.85-.14-.19-.02-.46.22-.66-.06-.25-.31.09-.67.49-.49.11.05.1.19.2.22,1,.37,1.28-.47,2.13-.75v-.34c-.2.12-.41-.02-.61.04-.24.07-.54.49-.77.54s-.63-.15-.89-.17c-.29-.02-.86.33-.74-.36s1.46.7,1.9-.1c-.78-.08-.71-.35-1.1-.8-.16-.18-.57-.26-.49-.58.06-.22.39-.35.6-.23.11.08.14.96.56,1.14.45.19,1.21.06,1.63.42l.3-.55c-.27-.08-.32-.38-.5-.5-.21-.14-.55-.1-.75-.25-.12-.09-.14-.33-.31-.39-.25-.09-.47.07-.69.07-.59,0-.48-.83.18-.68.07.02.08.17.15.19.71.26.58.37.93.56.46.25,1.06-.02,1.1.95.32-.16.66-.14.99-.01.26-.42.62-.83.7-1.35.06-.38-.2-1.45.07-1.54.86-.28.07,1.29.28,1.6.14.2.84-.04,1.03-.14h0ZM44.97,26.71c-.4.12-.36.72.09.78.73.11.66-1.01-.09-.78Z"/>
  <path d="M47.81,27.08c.14.13.8-.2,1.02,0,.29.25.1.74-.28.7-.25-.02-.49-.5-.84-.39-.36.52.62,1.08.68,1.26.05.16.05.46-.15.52-.52.17-.39-.39-.52-.66-.31-.66-.46-.57-.92-.88-.33-.22-.22-.6-.8-.45v-.3c.65.17.55-.21.87-.38.26-.13.48,0,.62-.07.3-.14.92-1.34,1.26-.86.33.47-.32.47-.51.6-.2.14-.7.65-.44.89h0Z"/>
  <path d="M45.4,25.89l-.35-.1c.18-.35-.22-1.17-.47-1.37-.09-.08-1.11-.31-1.24-.3-.16,0-.66.39-.7-.19-.05-.75.65-.17.89-.1.46.13.97.11,1.38.37-.06-.86-.91-.4-1.11-.54-.25-.17-.13-.76.34-.64.04.01.73.41.77.44.55.44.29.85.33,1.28.02.18.22.34.24.52s-.12.43-.07.64h0Z"/>
  <path class="cls-1" d="M44.97,26.71c.75-.22.82.89.09.78-.44-.06-.48-.66-.09-.78Z"/>
</svg>